<?xml version="1.0" standalone="no"?>
<!DOCTYPE svg PUBLIC "-//W3C//DTD SVG 20010904//EN"
 "http://www.w3.org/TR/2001/REC-SVG-20010904/DTD/svg10.dtd">
<svg version="1.0" xmlns="http://www.w3.org/2000/svg"
 width="1024.000000pt" height="1024.000000pt" viewBox="0 0 1024.000000 1024.000000"
 preserveAspectRatio="xMidYMid meet">
<metadata>
Created by potrace 1.14, written by Peter Selinger 2001-2017
</metadata>
<g transform="translate(0.000000,1024.000000) scale(0.100000,-0.100000)"
fill="#000000" stroke="none">
<path d="M7760 9130 c-19 -4 -48 -10 -65 -13 -16 -4 -95 -20 -175 -36 -80 -16
-167 -33 -195 -36 -27 -4 -61 -9 -75 -11 -14 -2 -56 -6 -95 -9 -38 -4 -83 -8
-100 -10 -34 -4 -241 -12 -550 -20 -115 -3 -239 -8 -275 -10 -36 -2 -112 -7
-170 -10 -58 -3 -123 -8 -145 -10 -22 -2 -83 -7 -135 -10 -52 -3 -131 -8 -175
-11 -85 -5 -373 -32 -415 -39 -14 -2 -47 -6 -75 -9 -43 -5 -94 -12 -225 -31
-73 -10 -156 -18 -167 -16 -7 1 -13 -2 -13 -6 0 -4 -10 -8 -22 -9 -13 0 -36
-4 -53 -7 -16 -4 -74 -15 -127 -24 -54 -9 -98 -20 -98 -24 0 -4 -8 -6 -19 -4
-10 2 -38 -1 -62 -7 -24 -5 -51 -11 -59 -13 -14 -3 -89 -23 -170 -46 -19 -6
-41 -11 -47 -11 -7 -1 -13 -5 -13 -10 0 -5 -4 -6 -10 -3 -5 3 -16 3 -22 -2 -7
-4 -17 -8 -23 -9 -24 -4 -141 -48 -152 -57 -7 -5 -13 -7 -13 -3 0 3 -24 -4
-52 -15 -94 -36 -128 -53 -128 -62 0 -4 -4 -6 -10 -2 -9 6 -112 -44 -118 -58
-2 -4 -7 -5 -12 -2 -4 2 -19 -6 -33 -19 -14 -13 -29 -21 -32 -17 -4 3 -12 -1
-18 -9 -7 -8 -18 -16 -26 -18 -13 -3 -69 -38 -81 -52 -3 -3 -12 -9 -21 -15
-87 -54 -222 -180 -290 -271 -24 -32 -46 -61 -50 -64 -14 -12 -73 -105 -106
-167 -89 -167 -131 -308 -163 -545 -11 -84 -24 -180 -30 -213 -5 -33 -12 -76
-14 -95 -34 -248 -58 -429 -71 -540 -14 -114 -20 -138 -38 -153 -70 -59 -150
-148 -147 -163 1 -4 -2 -10 -7 -13 -16 -11 -55 -71 -46 -71 4 0 3 -4 -4 -8
-22 -14 -100 -212 -117 -298 -2 -11 -11 -47 -20 -82 -26 -98 -31 -169 -31
-422 0 -300 20 -435 104 -728 66 -229 241 -492 397 -594 l64 -42 0 -66 c0
-205 10 -663 15 -710 39 -361 129 -605 318 -860 40 -55 155 -180 271 -296 111
-110 279 -281 374 -380 278 -287 438 -416 655 -529 267 -139 487 -194 802
-200 272 -5 425 15 610 82 299 107 585 313 966 692 186 186 267 274 420 456
122 145 231 297 326 455 123 205 217 447 318 820 38 143 132 587 149 705 3 22
17 116 31 208 28 182 60 552 71 822 13 310 7 964 -11 1125 -2 19 -9 91 -15
160 -15 172 -41 362 -50 379 -5 9 1 31 15 55 94 169 168 586 215 1201 6 77 13
165 15 195 3 30 8 161 11 290 5 231 -5 371 -27 378 -5 2 -7 8 -4 13 7 10 -29
83 -54 108 -9 9 -21 25 -24 35 -4 10 -12 14 -18 10 -7 -4 -9 -3 -6 3 9 14 -46
61 -103 90 -36 18 -60 23 -120 22 -41 -1 -91 -5 -110 -9z"/>
</g>
</svg>
